<svg width="40" height="40" viewBox="0 0 40 40" fill="none" xmlns="http://www.w3.org/2000/svg">
<circle cx="20" cy="20" r="20" fill="#FF0000"/>
<path d="M24.4551 8.75195C23.3471 8.77578 22.2021 9.08933 21.1113 9.76367C18.8905 11.1361 16.839 12.7496 14.9902 14.5664C12.565 16.9506 10.889 19.8983 9.86329 23.0703C9.72621 23.2598 9.65987 23.4913 9.67579 23.7246C9.08041 25.7899 8.69168 27.9208 8.7422 30.1074C8.75634 30.7302 9.27155 31.2447 9.89454 31.2578C12.0805 31.3081 14.2107 30.9195 16.2754 30.3242C16.5087 30.3401 16.7402 30.2738 16.9297 30.1367C20.1016 29.1108 23.048 27.4338 25.4316 25.0078C27.2496 23.158 28.8621 21.1062 30.2344 18.8867C32.0326 15.9781 31.2647 12.6944 29.2852 10.7148C28.2954 9.72505 26.9789 9.03712 25.5469 8.82226C25.1889 8.76855 24.8244 8.74401 24.4551 8.75195ZM24.541 10.7207C24.7966 10.7148 25.0474 10.7327 25.293 10.7715C26.2751 10.9266 27.1655 11.4233 27.8711 12.1289C29.2823 13.5401 29.859 15.6916 28.5332 17.8359C28.4618 17.9514 28.356 18.0398 28.2832 18.1543C26.81 15.4154 24.5869 13.1879 21.8516 11.709C21.9638 11.6377 22.0509 11.5348 22.1641 11.4648C22.9682 10.9677 23.7742 10.7385 24.541 10.7207ZM20.125 13.0645C23.1382 14.4569 25.5446 16.8634 26.9297 19.8809C25.9935 21.1569 25.1126 22.4793 24.0059 23.6055C22.0429 25.6033 19.6617 27.0691 17.082 28.0234C16.5487 25.4266 14.5734 23.4513 11.9766 22.918C12.9307 20.3387 14.3958 17.9574 16.3926 15.9941C17.52 14.8861 18.8464 14.0021 20.125 13.0645ZM11.4336 24.8066C13.3892 25.1323 14.8677 26.6108 15.1934 28.5664C13.7648 28.9342 12.3059 29.1563 10.8106 29.1895C10.8437 27.6941 11.0658 26.2353 11.4336 24.8066Z" fill="white"/>
</svg>
