<svg width="18" height="16" viewBox="0 0 18 16" fill="none" xmlns="http://www.w3.org/2000/svg">
<path d="M15.6929 1.82118C14.8077 0.935976 13.6357 0.452158 12.385 0.452158C11.1342 0.452158 9.95873 0.93956 9.07352 1.82477L8.6112 2.28708L8.14172 1.8176C7.25651 0.932393 6.07743 0.441406 4.82667 0.441406C3.57949 0.441406 2.40399 0.928809 1.52237 1.81043C0.637158 2.69564 0.149756 3.87114 0.15334 5.1219C0.15334 6.37266 0.644326 7.54458 1.52953 8.42979L8.25999 15.1602C8.35317 15.2534 8.4786 15.3036 8.60045 15.3036C8.7223 15.3036 8.84774 15.257 8.94092 15.1638L15.6857 8.44412C16.5709 7.55891 17.0583 6.38341 17.0583 5.13265C17.0619 3.88189 16.5781 2.70639 15.6929 1.82118ZM15.0048 7.75961L8.60045 14.1388L2.21046 7.74886C1.50803 7.04642 1.12098 6.11463 1.12098 5.1219C1.12098 4.12918 1.50445 3.19738 2.20688 2.49853C2.90573 1.79968 3.83753 1.41263 4.82667 1.41263C5.81939 1.41263 6.75477 1.79968 7.45721 2.50211L8.26715 3.31206C8.4571 3.50201 8.76173 3.50201 8.95167 3.31206L9.75445 2.50928C10.4569 1.80685 11.3923 1.41979 12.3814 1.41979C13.3705 1.41979 14.3023 1.80685 15.0048 2.5057C15.7072 3.20813 16.0907 4.13993 16.0907 5.13265C16.0943 6.12538 15.7072 7.05718 15.0048 7.75961Z" fill="#FF0000"/>
</svg>
